<svg width="35" height="35" viewBox="0 0 35 35" fill="none" xmlns="http://www.w3.org/2000/svg">
<path d="M14.582 27.7083C14.2413 27.709 13.911 27.5903 13.6487 27.3729C13.501 27.2505 13.3789 27.1001 13.2895 26.9305C13.2 26.7608 13.1449 26.5751 13.1273 26.3841C13.1096 26.1931 13.1299 26.0005 13.1868 25.8173C13.2438 25.6342 13.3363 25.464 13.4591 25.3167L19.9924 17.5L13.6924 9.66875C13.5713 9.51958 13.4808 9.34793 13.4262 9.16369C13.3716 8.97945 13.354 8.78623 13.3743 8.59515C13.3947 8.40406 13.4525 8.21888 13.5447 8.05024C13.6368 7.88161 13.7614 7.73284 13.9112 7.61249C14.062 7.47973 14.2387 7.37959 14.4302 7.31836C14.6216 7.25712 14.8236 7.23612 15.0235 7.25666C15.2235 7.2772 15.417 7.33884 15.592 7.43772C15.7669 7.5366 15.9196 7.67058 16.0403 7.83124L23.0841 16.5812C23.2986 16.8422 23.4158 17.1695 23.4158 17.5073C23.4158 17.8451 23.2986 18.1724 23.0841 18.4333L15.7924 27.1833C15.6461 27.3598 15.4603 27.4993 15.25 27.5905C15.0397 27.6818 14.8108 27.7221 14.582 27.7083Z" fill="white"/>
</svg>
