<svg width="194" height="193" viewBox="0 0 194 193" fill="none" xmlns="http://www.w3.org/2000/svg">
<g filter="url(#filter0_bi_2203_873)">
<path d="M95.9765 32.9884C102.904 24.7326 116.171 27.0719 119.857 37.1991L152.439 126.717C156.125 136.844 147.465 147.164 136.852 145.292L43.0363 128.75C32.4228 126.879 27.8153 114.22 34.7427 105.964L95.9765 32.9884Z" fill="white" fill-opacity="0.13"/>
</g>
<g filter="url(#filter1_i_2203_873)">
<path d="M85.1729 65.0713C81.5645 66.9464 78.4457 69.6409 76.0665 72.9388C73.6873 76.2366 72.114 80.0461 71.4726 84.0617H72.9806C82.7046 83.8364 90.3278 82.994 96.554 81.0873C93.85 76.2929 90.5497 71.5886 86.5908 66.8046L86.5873 66.8012L85.1729 65.0713V65.0713Z" fill="#EA4C89"/>
<path d="M71.1592 87.5287L71.1523 88.1527C71.1523 95.145 73.9118 101.492 78.4011 106.166L78.9592 105.042C78.9903 104.98 79.025 104.92 79.0632 104.862C84.811 96.1191 91.3144 90.9191 98.5875 88.5861C99.0798 88.4266 99.579 88.281 100.078 88.1493C99.4959 86.8143 98.8751 85.4964 98.2166 84.1973C91.4046 86.3917 83.2163 87.293 73.0382 87.5253H71.1627L71.1592 87.5287Z" fill="#EA4C89"/>
<path d="M81.0664 108.582C85.6469 112.199 91.3153 114.162 97.1517 114.153C100.247 114.153 103.218 113.612 105.967 112.62V110.124C105.122 103.416 103.634 97.2632 101.398 91.3906C100.809 91.5362 100.223 91.7026 99.6442 91.8864C93.328 93.9144 87.4242 98.4834 82.0162 106.682L81.0698 108.582H81.0664Z" fill="#EA4C89"/>
<path d="M109.433 111.074C112.784 109.276 115.701 106.765 117.978 103.719C120.255 100.673 121.837 97.1655 122.613 93.4425L120.655 92.5585C115.018 90.9015 109.766 90.222 104.871 90.7732C107.083 96.7359 108.57 102.997 109.419 109.798C109.43 109.868 109.433 109.937 109.433 110.013V111.074V111.074Z" fill="#EA4C89"/>
<path d="M123.096 89.8582C123.554 83.0486 121.305 76.3335 116.839 71.1729L115.809 72.3134C111.753 77.2465 107.122 80.6681 101.492 82.9977C102.227 84.4675 102.913 85.9478 103.548 87.4488C109.344 86.6168 115.439 87.4003 121.751 89.2689C121.828 89.2913 121.904 89.3191 121.977 89.3521L123.096 89.8582Z" fill="#EA4C89"/>
<path d="M114.404 68.6974C109.652 64.4725 103.512 62.1429 97.1536 62.1524C94.1099 62.1524 91.1909 62.6724 88.4765 63.6361L89.2669 64.5998C93.4963 69.7062 97.0045 74.7537 99.868 79.9156C105.217 77.7558 109.457 74.5977 113.159 70.0806C113.176 70.0594 113.193 70.0386 113.211 70.0182L114.404 68.7009V68.6974Z" fill="#EA4C89"/>
</g>
<defs>
<filter id="filter0_bi_2203_873" x="15.4538" y="11.9833" width="153.849" height="149.531" filterUnits="userSpaceOnUse" color-interpolation-filters="sRGB">
<feFlood flood-opacity="0" result="BackgroundImageFix"/>
<feGaussianBlur in="BackgroundImageFix" stdDeviation="8"/>
<feComposite in2="SourceAlpha" operator="in" result="effect1_backgroundBlur_2203_873"/>
<feBlend mode="normal" in="SourceGraphic" in2="effect1_backgroundBlur_2203_873" result="shape"/>
<feColorMatrix in="SourceAlpha" type="matrix" values="0 0 0 0 0 0 0 0 0 0 0 0 0 0 0 0 0 0 127 0" result="hardAlpha"/>
<feOffset dy="-12"/>
<feGaussianBlur stdDeviation="2.5"/>
<feComposite in2="hardAlpha" operator="arithmetic" k2="-1" k3="1"/>
<feColorMatrix type="matrix" values="0 0 0 0 1 0 0 0 0 1 0 0 0 0 1 0 0 0 0.25 0"/>
<feBlend mode="normal" in2="shape" result="effect2_innerShadow_2203_873"/>
</filter>
<filter id="filter1_i_2203_873" x="71.1523" y="58.1523" width="52.0025" height="56.0005" filterUnits="userSpaceOnUse" color-interpolation-filters="sRGB">
<feFlood flood-opacity="0" result="BackgroundImageFix"/>
<feBlend mode="normal" in="SourceGraphic" in2="BackgroundImageFix" result="shape"/>
<feColorMatrix in="SourceAlpha" type="matrix" values="0 0 0 0 0 0 0 0 0 0 0 0 0 0 0 0 0 0 127 0" result="hardAlpha"/>
<feOffset dy="-5"/>
<feGaussianBlur stdDeviation="2"/>
<feComposite in2="hardAlpha" operator="arithmetic" k2="-1" k3="1"/>
<feColorMatrix type="matrix" values="0 0 0 0 0 0 0 0 0 0 0 0 0 0 0 0 0 0 0.25 0"/>
<feBlend mode="normal" in2="shape" result="effect1_innerShadow_2203_873"/>
</filter>
</defs>
</svg>
