<svg width="1690" height="125" viewBox="0 0 1690 125" fill="none" xmlns="http://www.w3.org/2000/svg">
<path d="M333.5 55.6271L333.558 55.1305L333.5 55.6271ZM1690 25.1271L1684.29 25.951L1687.86 30.4879L1690 25.1271ZM1.28558 124.037C9.15739 118.56 19.7573 112.242 32.7891 105.672L32.3389 104.779C19.2741 111.365 8.63229 117.707 0.714422 123.217L1.28558 124.037ZM44.6673 99.9383C63.6707 91.149 86.7465 82.2236 113.21 74.5148L112.93 73.5547C86.4184 81.2776 63.2958 90.2206 44.2476 99.0307L44.6673 99.9383ZM125.912 70.9818C147.851 65.1648 171.875 60.2569 197.637 56.9438L197.51 55.952C171.702 59.271 147.634 64.1876 125.655 70.0152L125.912 70.9818ZM210.753 55.4137C233.88 52.9913 258.302 51.8875 283.783 52.5667L283.81 51.567C258.282 50.8867 233.817 51.9925 210.649 54.4192L210.753 55.4137ZM296.977 53.0753C308.922 53.6781 321.084 54.6789 333.442 56.1237L333.558 55.1305C321.178 53.6831 308.994 52.6804 297.027 52.0766L296.977 53.0753ZM333.442 56.1237C344.573 57.4251 355.894 58.679 367.366 59.876L367.47 58.8814C356.002 57.6848 344.685 56.4314 333.558 55.1305L333.442 56.1237ZM379.632 61.1284C401.91 63.3529 424.695 65.3548 447.704 67.0682L447.779 66.071C424.778 64.3582 402.002 62.357 379.731 60.1333L379.632 61.1284ZM460.006 67.955C482.666 69.5344 505.495 70.8243 528.226 71.7624L528.267 70.7632C505.546 69.8256 482.727 68.5362 460.076 66.9575L460.006 67.955ZM540.557 72.2368C563.57 73.057 586.433 73.5036 608.868 73.5112L608.868 72.5112C586.446 72.5036 563.595 72.0573 540.593 71.2374L540.557 72.2368ZM621.214 73.4704C644.604 73.3063 667.466 72.6447 689.478 71.4099L689.422 70.4114C667.429 71.6452 644.583 72.3064 621.207 72.4704L621.214 73.4704ZM701.832 70.65C725.742 69.0468 748.546 66.729 769.809 63.5946L769.663 62.6053C748.431 65.7351 725.654 68.0505 701.765 69.6522L701.832 70.65ZM781.998 61.679C806.661 57.5529 829.015 52.2329 848.319 45.5432L847.991 44.5983C828.755 51.2647 806.458 56.573 781.833 60.6927L781.998 61.679ZM859.885 41.2206C871.379 36.5855 881.576 31.3754 890.278 25.5425L889.722 24.7118C881.089 30.498 870.957 35.6778 859.511 40.2931L859.885 41.2206ZM890.278 25.5425C899.889 19.1009 911.044 14.096 923.425 10.3612L923.136 9.40381C910.679 13.1615 899.43 18.2047 889.722 24.7118L890.278 25.5425ZM936.236 7.03622C958.046 2.22447 982.905 0.75077 1009.34 1.84018L1009.38 0.841024C982.889 -0.25074 957.939 1.22403 936.021 6.0597L936.236 7.03622ZM1022.57 2.58721C1046.14 4.2652 1070.73 7.81048 1095.32 12.6971L1095.52 11.7162C1070.89 6.8231 1046.26 3.27121 1022.64 1.58974L1022.57 2.58721ZM1108.32 15.402C1132.48 20.6557 1156.48 27.116 1179.37 34.2815L1179.67 33.3272C1156.75 26.1535 1132.73 19.6853 1108.53 14.4248L1108.32 15.402ZM1192.01 38.3446C1216.92 46.5677 1240.24 55.5436 1260.69 64.5867L1261.09 63.6721C1240.61 54.6149 1217.26 45.6274 1192.32 37.395L1192.01 38.3446ZM1272.76 70.0928C1284.97 75.837 1295.91 81.5507 1305.25 87.0578L1305.75 86.1965C1296.39 80.6704 1285.42 74.9424 1273.19 69.1879L1272.76 70.0928ZM1305.25 87.0578C1314.36 92.4357 1325.04 96.5545 1336.91 99.57L1337.16 98.6008C1325.35 95.6029 1314.77 91.5155 1305.75 86.1965L1305.25 87.0578ZM1348.96 102.185C1369.29 105.906 1392.46 106.899 1416.97 105.796L1416.92 104.797C1392.46 105.898 1369.38 104.905 1349.14 101.201L1348.96 102.185ZM1429.26 105.077C1451.26 103.504 1474.13 100.378 1496.84 96.1275L1496.66 95.1446C1473.98 99.389 1451.15 102.51 1429.19 104.08L1429.26 105.077ZM1508.92 93.7602C1531.63 89.1091 1554 83.4032 1575.02 77.0755L1574.74 76.118C1553.74 82.4372 1531.4 88.1357 1508.72 92.7805L1508.92 93.7602ZM1586.79 73.4258C1610.63 65.8008 1632.37 57.4418 1650.4 49.0322L1649.98 48.126C1632 56.5142 1610.29 64.8584 1586.48 72.4733L1586.79 73.4258ZM1661.44 43.6385C1671.55 38.4444 1680.13 33.2815 1686.76 28.3104L1686.16 27.51C1679.59 32.4366 1671.07 37.5705 1660.98 42.7488L1661.44 43.6385Z" fill="white"/>
</svg>
